<svg width="355" height="10485" viewBox="0 0 355 10485" fill="none" xmlns="http://www.w3.org/2000/svg">
<path d="M11.5 5V107C11.5 129.091 29.4086 147 51.5 147H309.5C331.591 147 349.5 164.909 349.5 187V394C349.5 416.091 331.591 434 309.5 434H45.5C23.4086 434 5.5 451.909 5.5 474V742.5C5.5 764.591 23.4086 782.5 45.5 782.5H309.5C331.591 782.5 349.5 800.409 349.5 822.5V986C349.5 1008.09 331.591 1026 309.5 1026H45.5C23.4086 1026 5.5 1043.91 5.5 1066V1394.5C5.5 1416.59 23.4086 1434.5 45.5 1434.5H240C262.091 1434.5 280 1416.59 280 1394.5V1375.25C280 1356.06 295.558 1340.5 314.75 1340.5V1340.5C333.942 1340.5 349.5 1356.06 349.5 1375.25V1695.5C349.5 1717.59 331.591 1735.5 309.5 1735.5H45.5C23.4086 1735.5 5.5 1753.41 5.5 1775.5V1984.5C5.5 2006.59 23.4086 2024.5 45.5 2024.5H309.5C331.591 2024.5 349.5 2042.41 349.5 2064.5V2459.5C349.5 2481.59 331.591 2499.5 309.5 2499.5H45.5C23.4086 2499.5 5.5 2517.41 5.5 2539.5V2992.5C5.5 3014.59 23.4086 3032.5 45.5 3032.5H307C329.091 3032.5 347 3050.41 347 3072.5V3481C347 3503.09 329.091 3521 307 3521H45.5C23.4086 3521 5.5 3538.91 5.5 3561V4000.5C5.5 4022.59 23.4086 4040.5 45.5 4040.5H307C329.091 4040.5 347 4058.41 347 4080.5V4499C347 4521.09 329.091 4539 307 4539H45.5C23.4086 4539 5.5 4556.91 5.5 4579V4993.5C5.5 5015.59 23.4086 5033.5 45.5 5033.5H307C329.091 5033.5 347 5051.41 347 5073.5V5581C347 5603.09 329.091 5621 307 5621H45.5C23.4086 5621 5.5 5638.91 5.5 5661V6153.5C5.5 6175.59 23.4086 6193.5 45.5 6193.5H307C329.091 6193.5 347 6211.41 347 6233.5V7138.5C347 7160.59 329.091 7178.5 307 7178.5H45.5C23.4086 7178.5 5.5 7196.41 5.5 7218.5V8180C5.5 8202.09 23.4086 8220 45.5 8220H217C239.091 8220 257 8202.09 257 8180V8125.5C257 8103.41 239.091 8085.5 217 8085.5H156C133.909 8085.5 116 8103.41 116 8125.5V8225C116 8247.09 133.909 8265 156 8265H307C329.091 8265 347 8282.91 347 8305V8605C347 8627.09 329.091 8645 307 8645H156C133.909 8645 116 8662.91 116 8685V8752.5C116 8774.59 133.909 8792.5 156 8792.5H217C239.091 8792.5 257 8774.59 257 8752.5V8715C257 8692.91 239.091 8675 217 8675H45.5C23.4086 8675 5.5 8692.91 5.5 8715V9206C5.5 9228.09 23.4086 9246 45.5 9246H217C239.091 9246 257 9263.91 257 9286V9322C257 9344.09 239.091 9362 217 9362H156C133.909 9362 116 9344.09 116 9322V9241C116 9218.91 133.909 9201 156 9201H307C329.091 9201 347 9218.91 347 9241V9752C347 9774.09 329.091 9792 307 9792H156C133.909 9792 116 9809.91 116 9832V9930C116 9952.09 133.909 9970 156 9970H217C239.091 9970 257 9952.09 257 9930V9872C257 9849.91 239.091 9832 217 9832H45.5C23.4086 9832 5.5 9849.91 5.5 9872V10401.5C5.5 10423.6 23.4086 10441.5 45.5 10441.5H144.5M144.5 10441.5L150.034 10425C159.34 10397.3 194.711 10389 215.921 10409.1V10409.1C233.684 10426 232.547 10455 213.182 10470L211.517 10471.3C190.632 10487.5 160.071 10479.4 150.021 10454.9L144.5 10441.5Z" stroke="white" stroke-width="10" stroke-linecap="round"/>
</svg>
